<svg width="120" height="120" viewBox="0 0 120 120" fill="none" xmlns="http://www.w3.org/2000/svg">
<circle cx="60" cy="60" r="60" fill="white"/>
<path d="M34.1362 56.153C34.0589 55.9106 33.9551 55.6935 33.8246 55.5018C33.6967 55.3074 33.5436 55.1422 33.3651 55.0064C33.1867 54.8679 32.983 54.7627 32.7539 54.6908C32.5275 54.6189 32.2785 54.5829 32.0068 54.5829C31.5461 54.5829 31.1306 54.7014 30.7604 54.9385C30.3902 55.1755 30.0972 55.5231 29.8815 55.9812C29.6684 56.4366 29.5619 56.9946 29.5619 57.6551C29.5619 58.3183 29.6697 58.8789 29.8855 59.337C30.1012 59.7951 30.3968 60.1427 30.7724 60.3797C31.1479 60.6167 31.5754 60.7353 32.0548 60.7353C32.4996 60.7353 32.8871 60.6447 33.2173 60.4636C33.5502 60.2825 33.8073 60.0268 33.9884 59.6966C34.1721 59.3636 34.264 58.9721 34.264 58.522L34.5836 58.5819H32.2425V57.5632H35.4585V58.4941C35.4585 59.1812 35.3121 59.7778 35.0191 60.2838C34.7288 60.7872 34.3266 61.176 33.8126 61.4504C33.3012 61.7247 32.7153 61.8619 32.0548 61.8619C31.3144 61.8619 30.6645 61.6914 30.1052 61.3505C29.5486 61.0096 29.1144 60.5262 28.8028 59.9003C28.4912 59.2718 28.3354 58.526 28.3354 57.6631C28.3354 57.0106 28.426 56.4246 28.6071 55.9053C28.7882 55.3859 29.0425 54.9451 29.3701 54.5829C29.7004 54.218 30.0879 53.9397 30.5327 53.748C30.9801 53.5535 31.4688 53.4563 31.9988 53.4563C32.441 53.4563 32.8525 53.5216 33.2333 53.6521C33.6168 53.7826 33.9577 53.9677 34.256 54.2074C34.557 54.4471 34.806 54.7321 35.0031 55.0623C35.2002 55.3899 35.3334 55.7535 35.4026 56.153H34.1362ZM44.1327 57.6591C44.1327 58.5327 43.9729 59.2837 43.6533 59.9123C43.3337 60.5382 42.8956 61.0202 42.339 61.3585C41.785 61.6941 41.1551 61.8619 40.4493 61.8619C39.7409 61.8619 39.1083 61.6941 38.5517 61.3585C37.9977 61.0202 37.5609 60.5368 37.2413 59.9083C36.9217 59.2797 36.7619 58.53 36.7619 57.6591C36.7619 56.7855 36.9217 56.0358 37.2413 55.4099C37.5609 54.7813 37.9977 54.2993 38.5517 53.9637C39.1083 53.6254 39.7409 53.4563 40.4493 53.4563C41.1551 53.4563 41.785 53.6254 42.339 53.9637C42.8956 54.2993 43.3337 54.7813 43.6533 55.4099C43.9729 56.0358 44.1327 56.7855 44.1327 57.6591ZM42.9103 57.6591C42.9103 56.9933 42.8024 56.4326 42.5867 55.9772C42.3736 55.5191 42.0806 55.1729 41.7078 54.9385C41.3376 54.7014 40.9181 54.5829 40.4493 54.5829C39.9779 54.5829 39.5571 54.7014 39.1869 54.9385C38.8167 55.1729 38.5237 55.5191 38.308 55.9772C38.0949 56.4326 37.9884 56.9933 37.9884 57.6591C37.9884 58.3249 38.0949 58.8869 38.308 59.345C38.5237 59.8004 38.8167 60.1467 39.1869 60.3837C39.5571 60.6181 39.9779 60.7353 40.4493 60.7353C40.9181 60.7353 41.3376 60.6181 41.7078 60.3837C42.0806 60.1467 42.3736 59.8004 42.5867 59.345C42.8024 58.8869 42.9103 58.3249 42.9103 57.6591ZM48.2456 54.6309V53.5682H54.5777V54.6309H52.0249V61.75H50.7945V54.6309H48.2456ZM62.7326 57.6591C62.7326 58.5327 62.5728 59.2837 62.2532 59.9123C61.9336 60.5382 61.4955 61.0202 60.9388 61.3585C60.3849 61.6941 59.755 61.8619 59.0492 61.8619C58.3407 61.8619 57.7082 61.6941 57.1515 61.3585C56.5976 61.0202 56.1608 60.5368 55.8412 59.9083C55.5216 59.2797 55.3618 58.53 55.3618 57.6591C55.3618 56.7855 55.5216 56.0358 55.8412 55.4099C56.1608 54.7813 56.5976 54.2993 57.1515 53.9637C57.7082 53.6254 58.3407 53.4563 59.0492 53.4563C59.755 53.4563 60.3849 53.6254 60.9388 53.9637C61.4955 54.2993 61.9336 54.7813 62.2532 55.4099C62.5728 56.0358 62.7326 56.7855 62.7326 57.6591ZM61.5101 57.6591C61.5101 56.9933 61.4023 56.4326 61.1865 55.9772C60.9735 55.5191 60.6805 55.1729 60.3076 54.9385C59.9374 54.7014 59.5179 54.5829 59.0492 54.5829C58.5778 54.5829 58.157 54.7014 57.7868 54.9385C57.4165 55.1729 57.1236 55.5191 56.9078 55.9772C56.6948 56.4326 56.5882 56.9933 56.5882 57.6591C56.5882 58.3249 56.6948 58.8869 56.9078 59.345C57.1236 59.8004 57.4165 60.1467 57.7868 60.3837C58.157 60.6181 58.5778 60.7353 59.0492 60.7353C59.5179 60.7353 59.9374 60.6181 60.3076 60.3837C60.6805 60.1467 60.9735 59.8004 61.1865 59.345C61.4023 58.8869 61.5101 58.3249 61.5101 57.6591ZM66.8455 54.6309V53.5682H73.1776V54.6309H70.6248V61.75H69.3943V54.6309H66.8455ZM74.5769 61.75V53.5682H75.8113V57.1238H79.8902V53.5682H81.1287V61.75H79.8902V58.1824H75.8113V61.75H74.5769ZM84.1609 53.5682V61.75H82.9265V53.5682H84.1609ZM90.4211 55.7175C90.3785 55.3393 90.2027 55.0463 89.8938 54.8386C89.5849 54.6282 89.196 54.523 88.7273 54.523C88.3917 54.523 88.1014 54.5763 87.8563 54.6828C87.6113 54.7867 87.4209 54.9305 87.285 55.1143C87.1519 55.2954 87.0853 55.5018 87.0853 55.7335C87.0853 55.9279 87.1306 56.0957 87.2211 56.2369C87.3143 56.378 87.4355 56.4965 87.5847 56.5924C87.7365 56.6856 87.8989 56.7642 88.0721 56.8281C88.2452 56.8894 88.4116 56.94 88.5714 56.9799L89.3705 57.1877C89.6315 57.2516 89.8991 57.3382 90.1735 57.4474C90.4478 57.5566 90.7021 57.7004 90.9365 57.8788C91.1709 58.0573 91.36 58.2783 91.5038 58.542C91.6503 58.8057 91.7235 59.1213 91.7235 59.4888C91.7235 59.9522 91.6037 60.3637 91.364 60.7233C91.1269 61.0828 90.782 61.3665 90.3293 61.5742C89.8792 61.782 89.3345 61.8858 88.6953 61.8858C88.0827 61.8858 87.5527 61.7886 87.1053 61.5942C86.6578 61.3998 86.3076 61.1241 86.0546 60.7672C85.8016 60.4077 85.6617 59.9815 85.6351 59.4888H86.8736C86.8975 59.7844 86.9934 60.0308 87.1612 60.2279C87.3317 60.4223 87.5487 60.5675 87.8124 60.6634C88.0787 60.7566 88.3704 60.8032 88.6873 60.8032C89.0362 60.8032 89.3465 60.7486 89.6181 60.6394C89.8925 60.5275 90.1082 60.373 90.2653 60.176C90.4225 59.9762 90.501 59.7432 90.501 59.4768C90.501 59.2345 90.4318 59.036 90.2933 58.8816C90.1575 58.7271 89.9724 58.5993 89.738 58.498C89.5063 58.3968 89.2439 58.3076 88.951 58.2304L87.9842 57.9667C87.329 57.7883 86.8096 57.5259 86.4261 57.1797C86.0453 56.8335 85.8548 56.3754 85.8548 55.8054C85.8548 55.334 85.9827 54.9225 86.2383 54.5709C86.494 54.2194 86.8403 53.9464 87.2771 53.752C87.7138 53.5549 88.2066 53.4563 88.7552 53.4563C89.3092 53.4563 89.7979 53.5535 90.2214 53.748C90.6475 53.9424 90.9831 54.21 91.2281 54.551C91.4732 54.8892 91.601 55.2781 91.6117 55.7175H90.4211ZM35.059 76.75V68.5682H37.9754C38.6119 68.5682 39.1393 68.684 39.5574 68.9157C39.9756 69.1475 40.2885 69.4644 40.4963 69.8666C40.704 70.2661 40.8079 70.7162 40.8079 71.2169C40.8079 71.7203 40.7027 72.173 40.4923 72.5752C40.2845 72.9747 39.9703 73.2916 39.5494 73.526C39.1313 73.7577 38.6053 73.8736 37.9714 73.8736H35.9659V72.8269H37.8596C38.2617 72.8269 38.588 72.7576 38.8383 72.6191C39.0887 72.478 39.2725 72.2862 39.3896 72.0439C39.5068 71.8015 39.5654 71.5258 39.5654 71.2169C39.5654 70.9079 39.5068 70.6336 39.3896 70.3939C39.2725 70.1542 39.0874 69.9664 38.8343 69.8306C38.584 69.6948 38.2537 69.6269 37.8436 69.6269H36.2935V76.75H35.059ZM42.2551 76.75V68.5682H45.1715C45.8053 68.5682 46.3313 68.6774 46.7495 68.8958C47.1703 69.1142 47.4846 69.4165 47.6923 69.8026C47.9001 70.1862 48.0039 70.6296 48.0039 71.133C48.0039 71.6337 47.8987 72.0745 47.6883 72.4553C47.4806 72.8335 47.1663 73.1278 46.7455 73.3382C46.3273 73.5487 45.8013 73.6539 45.1675 73.6539H42.9582V72.5912H45.0556C45.4551 72.5912 45.78 72.5339 46.0304 72.4194C46.2834 72.3049 46.4685 72.1384 46.5857 71.92C46.7029 71.7016 46.7615 71.4393 46.7615 71.133C46.7615 70.824 46.7015 70.5564 46.5817 70.33C46.4645 70.1036 46.2794 69.9305 46.0264 69.8106C45.776 69.6881 45.4471 69.6269 45.0396 69.6269H43.4895V76.75H42.2551ZM46.2941 73.0586L48.3155 76.75H46.9093L44.9278 73.0586H46.2941ZM56.6132 72.6591C56.6132 73.5327 56.4534 74.2837 56.1338 74.9123C55.8142 75.5382 55.3761 76.0202 54.8194 76.3585C54.2655 76.6941 53.6356 76.8619 52.9298 76.8619C52.2213 76.8619 51.5888 76.6941 51.0322 76.3585C50.4782 76.0202 50.0414 75.5368 49.7218 74.9083C49.4022 74.2797 49.2424 73.53 49.2424 72.6591C49.2424 71.7855 49.4022 71.0358 49.7218 70.4099C50.0414 69.7813 50.4782 69.2993 51.0322 68.9637C51.5888 68.6254 52.2213 68.4563 52.9298 68.4563C53.6356 68.4563 54.2655 68.6254 54.8194 68.9637C55.3761 69.2993 55.8142 69.7813 56.1338 70.4099C56.4534 71.0358 56.6132 71.7855 56.6132 72.6591ZM55.3907 72.6591C55.3907 71.9933 55.2829 71.4326 55.0671 70.9772C54.8541 70.5191 54.5611 70.1729 54.1882 69.9385C53.818 69.7014 53.3985 69.5829 52.9298 69.5829C52.4584 69.5829 52.0376 69.7014 51.6674 69.9385C51.2972 70.1729 51.0042 70.5191 50.7885 70.9772C50.5754 71.4326 50.4689 71.9933 50.4689 72.6591C50.4689 73.3249 50.5754 73.8869 50.7885 74.345C51.0042 74.8004 51.2972 75.1467 51.6674 75.3837C52.0376 75.6181 52.4584 75.7353 52.9298 75.7353C53.3985 75.7353 53.818 75.6181 54.1882 75.3837C54.5611 75.1467 54.8541 74.8004 55.0671 74.345C55.2829 73.8869 55.3907 73.3249 55.3907 72.6591ZM61.3323 68.5682H62.5628V74.369C62.5628 74.8936 62.4589 75.3424 62.2512 75.7153C62.0461 76.0882 61.7571 76.3731 61.3843 76.5702C61.0114 76.7646 60.5746 76.8619 60.0739 76.8619C59.6131 76.8619 59.199 76.778 58.8315 76.6102C58.4666 76.4424 58.1776 76.1987 57.9645 75.8791C57.7541 75.5568 57.6489 75.1653 57.6489 74.7045H58.8754C58.8754 74.9309 58.9273 75.1267 59.0312 75.2918C59.1377 75.4569 59.2829 75.5861 59.4667 75.6793C59.6531 75.7699 59.8662 75.8152 60.1059 75.8152C60.3669 75.8152 60.5879 75.7606 60.769 75.6514C60.9528 75.5395 61.0926 75.3757 61.1885 75.16C61.2844 74.9442 61.3323 74.6806 61.3323 74.369V68.5682ZM64.3596 76.75V68.5682H69.4892V69.6309H65.594V72.1238H69.2215V73.1824H65.594V75.6873H69.5371V76.75H64.3596ZM77.9337 71.2289H76.6872C76.6393 70.9625 76.5501 70.7282 76.4196 70.5257C76.2891 70.3233 76.1293 70.1515 75.9402 70.0104C75.7511 69.8692 75.5393 69.7627 75.305 69.6908C75.0732 69.6189 74.8269 69.5829 74.5659 69.5829C74.0945 69.5829 73.6723 69.7014 73.2994 69.9385C72.9292 70.1755 72.6363 70.5231 72.4205 70.9812C72.2075 71.4393 72.1009 71.9986 72.1009 72.6591C72.1009 73.3249 72.2075 73.8869 72.4205 74.345C72.6363 74.8031 72.9306 75.1493 73.3034 75.3837C73.6763 75.6181 74.0958 75.7353 74.5619 75.7353C74.8202 75.7353 75.0653 75.7006 75.297 75.6314C75.5313 75.5595 75.7431 75.4543 75.9322 75.3158C76.1213 75.1773 76.2811 75.0082 76.4116 74.8084C76.5447 74.606 76.6366 74.3743 76.6872 74.1133L77.9337 74.1173C77.8671 74.5194 77.7379 74.8896 77.5462 75.2279C77.3571 75.5635 77.1134 75.8538 76.8151 76.0988C76.5194 76.3412 76.1812 76.5289 75.8003 76.6621C75.4195 76.7953 75.004 76.8619 74.5539 76.8619C73.8454 76.8619 73.2142 76.6941 72.6602 76.3585C72.1063 76.0202 71.6695 75.5368 71.3499 74.9083C71.0329 74.2797 70.8745 73.53 70.8745 72.6591C70.8745 71.7855 71.0343 71.0358 71.3539 70.4099C71.6735 69.7813 72.1103 69.2993 72.6642 68.9637C73.2182 68.6254 73.8481 68.4563 74.5539 68.4563C74.988 68.4563 75.3928 68.5189 75.7684 68.6441C76.1466 68.7666 76.4862 68.9477 76.7871 69.1874C77.0881 69.4244 77.3371 69.7148 77.5342 70.0583C77.7313 70.3992 77.8644 70.7894 77.9337 71.2289ZM79.0073 69.6309V68.5682H85.3395V69.6309H82.7866V76.75H81.5562V69.6309H79.0073Z" fill="black"/>
<path fill-rule="evenodd" clip-rule="evenodd" d="M66.167 30.2228L70.3745 35.0637C70.6327 35.3608 70.6327 35.8424 70.3745 36.1395L66.167 40.9804C65.9088 41.2775 65.4901 41.2775 65.2319 40.9804C64.9737 40.6833 64.9737 40.2017 65.2319 39.9047L68.3109 36.3623H48.75V34.8409H68.3109L65.2319 31.2986C64.9737 31.0015 64.9737 30.5199 65.2319 30.2228C65.4901 29.9257 65.9088 29.9257 66.167 30.2228Z" fill="black"/>
</svg>
